<svg width="1200" height="700" viewBox="0 0 1200 700" xmlns="http://www.w3.org/2000/svg" role="img" aria-labelledby="title desc">
  <title id="title">Uzbekistan Decorative Illustration</title>
  <desc id="desc">A stylized landscape with domes and geometric ornaments inspired by Uzbekistan.</desc>
  <defs>
    <linearGradient id="bg" x1="0%" y1="0%" x2="100%" y2="100%">
      <stop offset="0%" stop-color="#10224a"/>
      <stop offset="55%" stop-color="#1a3a6e"/>
      <stop offset="100%" stop-color="#402014"/>
    </linearGradient>
    <radialGradient id="sun" cx="78%" cy="22%" r="38%">
      <stop offset="0%" stop-color="#f2de9f" stop-opacity="0.95"/>
      <stop offset="100%" stop-color="#f2de9f" stop-opacity="0"/>
    </radialGradient>
    <pattern id="ornament" width="42" height="42" patternUnits="userSpaceOnUse">
      <path d="M21 5 L27 15 L37 21 L27 27 L21 37 L15 27 L5 21 L15 15 Z" fill="none" stroke="rgba(232,201,106,0.26)" stroke-width="1"/>
    </pattern>
  </defs>

  <rect width="1200" height="700" fill="url(#bg)"/>
  <rect width="1200" height="700" fill="url(#ornament)" opacity="0.6"/>
  <circle cx="930" cy="160" r="220" fill="url(#sun)"/>

  <path d="M0 520 C160 450 320 455 470 525 C640 600 780 585 960 520 C1040 490 1120 475 1200 500 L1200 700 L0 700 Z" fill="#0c1b3a"/>
  <path d="M0 565 C210 510 390 520 560 585 C720 645 910 640 1200 560 L1200 700 L0 700 Z" fill="#09132b" opacity="0.85"/>

  <g fill="#c8a84b" opacity="0.75">
    <circle cx="240" cy="515" r="4"/>
    <circle cx="345" cy="485" r="3.5"/>
    <circle cx="470" cy="502" r="3"/>
    <circle cx="570" cy="548" r="4"/>
    <circle cx="760" cy="520" r="3.5"/>
  </g>

  <g transform="translate(330,220)">
    <rect x="-120" y="160" width="240" height="220" fill="rgba(200,168,75,0.1)" stroke="rgba(232,201,106,0.65)" stroke-width="2"/>
    <path d="M-95 160 Q0 50 95 160" fill="rgba(232,201,106,0.2)" stroke="rgba(232,201,106,0.75)" stroke-width="2"/>
    <rect x="-23" y="230" width="46" height="150" fill="rgba(200,168,75,0.16)" stroke="rgba(232,201,106,0.5)" stroke-width="1.5"/>
    <circle cx="0" cy="160" r="26" fill="none" stroke="rgba(232,201,106,0.75)" stroke-width="2"/>
  </g>

  <g transform="translate(760,255)">
    <rect x="-105" y="165" width="210" height="210" fill="rgba(200,168,75,0.08)" stroke="rgba(232,201,106,0.55)" stroke-width="2"/>
    <path d="M-90 165 Q0 85 90 165" fill="rgba(232,201,106,0.16)" stroke="rgba(232,201,106,0.65)" stroke-width="2"/>
    <rect x="-18" y="230" width="36" height="145" fill="rgba(200,168,75,0.14)" stroke="rgba(232,201,106,0.5)" stroke-width="1.5"/>
  </g>

  <g transform="translate(1030,230)" stroke="#e8c96a" stroke-width="1.4" fill="none" opacity="0.78">
    <polygon points="0,-62 14,-14 62,0 14,14 0,62 -14,14 -62,0 -14,-14"/>
    <circle cx="0" cy="0" r="88" opacity="0.45"/>
    <circle cx="0" cy="0" r="44" opacity="0.55"/>
    <line x1="-90" y1="0" x2="90" y2="0" opacity="0.45"/>
    <line x1="0" y1="-90" x2="0" y2="90" opacity="0.45"/>
  </g>
</svg>
